<svg version="1.1" id="Layer_1" xmlns="http://www.w3.org/2000/svg" xmlns:xlink="http://www.w3.org/1999/xlink" x="0px" y="0px"
	 width="100%" viewBox="0 0 500 500" enable-background="new 0 0 500 500" xml:space="preserve">
<path fill="#000000" opacity="1.000000" stroke="none" 
	d="
M230.000000,501.000000 
	C153.333359,501.000000 77.166702,501.000000 1.000041,501.000000 
	C1.000027,334.333405 1.000027,167.666779 1.000014,1.000130 
	C167.666565,1.000087 334.333130,1.000087 500.999756,1.000043 
	C500.999847,167.666519 500.999847,334.333038 500.999939,500.999786 
	C410.833344,501.000000 320.666656,501.000000 230.000000,501.000000 
M50.004494,345.996185 
	C50.004494,345.996185 49.941692,346.003143 50.087280,346.530457 
	C50.392681,346.706604 50.698078,346.882751 51.007462,346.992676 
	C51.007462,346.992676 50.941269,346.996552 51.085052,347.526947 
	C51.391159,347.705139 51.697262,347.883362 52.006618,347.993866 
	C52.006618,347.993866 51.938908,347.995972 52.081348,348.528320 
	C52.388004,348.707642 52.694660,348.886963 53.002789,348.997253 
	C53.002789,348.997253 52.933796,348.998962 53.070400,349.536163 
	C53.379700,349.713501 53.688999,349.890808 54.000118,349.999725 
	C54.000118,349.999725 53.931709,350.002228 54.070248,350.536926 
	C54.378994,350.712036 54.687737,350.887146 55.000370,350.997681 
	C55.000370,350.997681 54.936203,351.005981 55.070374,351.538910 
	C55.377636,351.712646 55.684898,351.886414 56.001644,351.998932 
	C56.001644,351.998932 55.940273,352.007629 56.074169,352.541046 
	C56.382004,352.714691 56.689838,352.888336 57.003361,352.996948 
	C57.003361,352.996948 56.938248,353.001862 57.090080,353.527069 
	C57.393887,353.707489 57.697689,353.887909 58.004124,353.998138 
	C58.004124,353.998138 57.933899,353.996185 58.077454,354.532227 
	C58.386448,354.712677 58.695438,354.893158 59.004116,354.995880 
	C59.004116,354.995880 58.926365,354.996063 59.074673,355.529663 
	C59.383511,355.707794 59.692348,355.885895 60.000969,355.996368 
	C60.000969,355.996368 59.933617,356.002533 60.072891,356.534760 
	C60.380299,356.709442 60.687702,356.884094 61.003109,356.996796 
	C61.003109,356.996796 60.941212,357.005157 61.075268,357.537292 
	C61.381588,357.712708 61.687908,357.888092 62.001106,357.999390 
	C62.001106,357.999390 61.936863,358.005157 62.067280,358.543549 
	C62.377151,358.718567 62.687019,358.893585 63.000660,359.000580 
	C63.000660,359.000580 62.932549,359.001862 63.075680,359.535797 
	C63.383877,359.714478 63.692074,359.893158 64.000191,360.000061 
	C64.000191,360.000061 63.928360,360.000000 64.075478,360.532288 
	C64.383476,360.710022 64.691483,360.887756 64.999962,360.997955 
	C64.999962,360.997955 64.932648,361.003601 65.075569,361.533539 
	C65.382042,361.708801 65.688515,361.884064 66.003624,361.997192 
	C66.003624,361.997192 65.941345,362.004364 66.080727,362.535309 
	C66.386551,362.713440 66.692375,362.891571 67.001816,363.000549 
	C67.001816,363.000549 66.932518,362.999451 67.075203,363.534210 
	C67.384422,363.710907 67.693634,363.887634 68.001808,363.995605 
	C68.001808,363.995605 67.933228,364.000305 68.087196,364.524414 
	C68.390961,364.703461 68.694717,364.882477 69.004234,364.996490 
	C69.004234,364.996490 68.939178,365.001282 69.074554,365.535706 
	C69.382713,365.710693 69.690865,365.885651 70.003403,365.995697 
	C70.003403,365.995697 69.938629,366.002136 70.088196,366.524994 
	C70.390884,366.702148 70.693573,366.879303 71.003899,366.995270 
	C71.003899,366.995270 70.943016,367.004913 71.072075,367.538757 
	C71.379066,367.712494 71.686066,367.886230 72.002876,367.998413 
	C72.002876,367.998413 71.940948,368.005585 72.080986,368.536377 
	C72.387550,368.712646 72.694107,368.888947 73.003754,368.997070 
	C73.003754,368.997070 72.935516,368.998596 73.083046,369.528931 
	C73.388824,369.710236 73.694603,369.891571 74.001564,369.999664 
	C74.001564,369.999664 73.928307,369.998352 74.076370,370.532654 
	C74.385757,370.711121 74.695145,370.889618 75.002892,370.995819 
	C75.002892,370.995819 74.930611,370.997284 75.080894,371.526581 
	C75.387306,371.705048 75.693710,371.883514 76.002708,371.995941 
	C76.002708,371.995941 75.936943,372.002380 76.072044,372.535339 
	C76.379913,372.707367 76.687790,372.879425 77.005096,372.993530 
	C77.005096,372.993530 76.947662,373.005707 77.084236,373.532837 
	C77.388191,373.707458 77.692139,373.882050 78.006310,373.995636 
	C78.006310,373.995636 77.944756,374.001892 78.081223,374.534424 
	C78.387718,374.712097 78.694206,374.889771 79.003387,374.998047 
	C79.003387,374.998047 78.933929,374.997620 79.079765,375.531097 
	C79.387657,375.711212 79.695541,375.891327 80.003204,375.996826 
	C80.003204,375.996826 79.928566,375.996887 80.077950,376.529327 
	C80.386147,376.708191 80.694344,376.887085 81.001564,376.996674 
	C81.001564,376.996674 80.932350,377.000183 81.078552,377.528778 
	C81.384308,377.705383 81.690063,377.881958 82.003319,377.996460 
	C82.003319,377.996460 81.941360,378.005005 82.082596,378.533386 
	C82.388496,378.707184 82.694405,378.881012 83.006912,378.992554 
	C83.006912,378.992554 82.944794,379.000458 83.091660,379.524109 
	C83.394974,379.699677 83.698296,379.875244 84.009697,379.990387 
	C84.009697,379.990387 83.949242,379.998474 84.092033,380.523651 
	C84.394363,380.702637 84.696686,380.881622 85.005806,380.995819 
	C85.005806,380.995819 84.940720,380.999420 85.074783,381.535950 
	C85.382912,381.714569 85.691040,381.893188 86.000656,382.000702 
	C86.000656,382.000702 85.929558,381.999268 86.073601,382.533478 
	C86.382294,382.711090 86.690987,382.888733 86.999008,382.998260 
	C86.999008,382.998260 86.931145,383.003906 87.070587,383.536957 
	C87.379135,383.709717 87.687691,383.882507 88.004402,383.994781 
	C88.004402,383.994781 87.944160,384.004761 88.088120,384.531311 
	C88.391739,384.710388 88.695351,384.889465 89.004219,384.999451 
	C89.004219,384.999451 88.934967,384.996765 89.074944,385.533661 
	C89.383560,385.714752 89.692177,385.895844 89.999634,385.999298 
	C89.999634,385.999298 89.921936,386.000275 90.072433,386.534821 
	C90.382347,386.713379 90.692261,386.891937 91.000977,386.998352 
	C91.000977,386.998352 90.928825,386.999390 91.083565,387.529327 
	C91.391090,387.709381 91.698616,387.889404 92.007729,387.993805 
	C92.007729,387.993805 91.932091,387.992065 92.081291,388.526306 
	C92.390411,388.706055 92.699532,388.885773 93.001617,389.000977 
	C93.001617,389.000977 92.939323,389.019318 93.190414,389.630280 
	C94.122498,390.113068 95.054581,390.595856 95.993385,391.008423 
	C95.993385,391.008423 95.923080,391.002411 96.075142,391.531128 
	C96.383530,391.703217 96.691917,391.875305 97.003349,391.995270 
	C97.003349,391.995270 96.959007,392.022827 97.392044,392.732452 
	C100.338455,392.462952 103.284859,392.193451 106.485954,391.926666 
	C106.485954,391.926666 106.706017,391.798401 107.357468,391.887268 
	C107.629478,391.565674 107.901489,391.244110 108.560364,390.811371 
	C108.806770,390.651398 108.932350,390.424530 109.632812,389.974823 
	C110.449448,388.990967 111.266083,388.007111 112.020821,387.009155 
	C112.020821,387.009155 112.034081,387.071228 112.741402,386.677856 
	C113.156807,383.441467 113.857925,380.211639 113.932922,376.967407 
	C114.140732,367.978851 114.087601,358.984314 113.990318,349.984283 
	C113.990318,349.984283 113.982101,350.131561 114.655540,350.050049 
	C115.100067,349.983063 115.544594,349.916077 116.920692,349.971954 
	C165.166931,349.983429 213.413177,350.004242 261.659363,349.963562 
	C263.187714,349.962280 264.715576,349.328064 266.599701,348.981842 
	C266.599701,348.981842 266.933441,348.857635 267.766388,348.987396 
	C269.575623,348.639954 271.384857,348.292480 274.022034,347.964203 
	C296.335205,345.009613 315.377258,334.870483 331.967957,320.270416 
	C348.107422,306.067444 359.689575,288.685211 366.648895,268.031189 
	C371.058197,254.945099 372.337128,241.775818 371.882812,228.244980 
	C371.734467,223.826950 368.555328,221.098404 364.182465,221.090317 
	C347.689514,221.059784 331.195404,221.175903 314.704224,220.999817 
	C310.307526,220.952881 308.323151,223.551147 307.275452,226.910095 
	C306.360962,229.842010 306.456116,233.081818 306.035370,236.176086 
	C304.673615,246.190506 301.625092,255.630051 295.052582,263.448883 
	C282.597565,278.265625 266.442902,284.314972 247.180969,284.157166 
	C204.535217,283.807831 161.884613,284.049988 119.235977,284.050903 
	C117.623039,284.050934 116.010094,284.050903 113.978340,284.050903 
	C113.978340,273.716705 113.963745,263.929138 113.983887,254.141663 
	C113.995705,248.397964 111.704933,243.327988 106.461357,241.525513 
	C101.511261,239.823944 96.339706,240.659531 92.050591,245.308563 
	C81.861526,256.352661 71.274124,267.037292 60.649899,277.669525 
	C50.673664,287.653259 40.573399,297.522156 30.266903,307.162750 
	C25.585228,311.541992 24.537571,319.745239 27.968157,323.584778 
	C28.307682,324.073853 28.647207,324.562958 29.003672,324.994324 
	C29.003672,324.994324 28.943533,324.997101 29.087442,325.524231 
	C29.390968,325.703674 29.694492,325.883148 30.002935,325.997070 
	C30.002935,325.997070 29.937342,326.001801 30.065830,326.541840 
	C30.376165,326.717346 30.686499,326.892853 31.001003,327.000610 
	C31.001003,327.000610 30.933090,327.001801 31.089466,327.526093 
	C31.392668,327.708862 31.695869,327.891663 32.000240,328.000580 
	C32.000240,328.000580 31.926348,327.999481 32.067650,328.537598 
	C32.377907,328.716431 32.688168,328.895264 32.995296,329.001801 
	C32.995296,329.001801 32.923058,329.005066 33.063770,329.541046 
	C33.373547,329.716614 33.683327,329.892181 33.999279,330.002106 
	C33.999279,330.002106 33.933468,330.006195 34.075027,330.539551 
	C34.383327,330.716156 34.691628,330.892761 35.000530,330.999542 
	C35.000530,330.999542 34.930649,331.000275 35.072540,331.535431 
	C35.381641,331.712555 35.690739,331.889709 36.000759,331.998413 
	C36.000759,331.998413 35.932354,332.001709 36.072956,332.535797 
	C36.381287,332.712402 36.689613,332.889008 37.001522,332.998627 
	C37.001522,332.998627 36.934525,333.002197 37.072544,333.537140 
	C37.381027,333.713684 37.689510,333.890259 38.000813,333.999207 
	C38.000813,333.999207 37.933220,334.002350 38.070515,334.535828 
	C38.377926,334.711670 38.685337,334.887482 38.997810,334.999695 
	C38.997810,334.999695 38.934803,335.009796 39.060425,335.547089 
	C39.369751,335.718079 39.679073,335.889099 39.999954,336.000427 
	C39.999954,336.000427 39.940220,336.011536 40.072254,336.545532 
	C40.379841,336.720459 40.687428,336.895386 41.001270,337.002319 
	C41.001270,337.002319 40.932964,337.001160 41.078827,337.534760 
	C41.386913,337.714966 41.695000,337.895203 42.002815,337.997192 
	C42.002815,337.997192 41.924606,337.997375 42.076027,338.531433 
	C42.385647,338.710663 42.695267,338.889893 43.003311,338.995483 
	C43.003311,338.995483 42.929691,338.996948 43.080761,339.526550 
	C43.387386,339.705353 43.694016,339.884186 44.002563,339.996185 
	C44.002563,339.996185 43.935932,340.001678 44.072922,340.534821 
	C44.380413,340.709747 44.687904,340.884674 45.002876,340.997070 
	C45.002876,340.997070 44.940380,341.004913 45.074787,341.537476 
	C45.381599,341.712433 45.688412,341.887421 46.001778,341.998352 
	C46.001778,341.998352 45.937706,342.004608 46.074417,342.537811 
	C46.381626,342.714203 46.688835,342.890594 47.000622,343.000092 
	C47.000622,343.000092 46.933628,343.002747 47.068542,343.541443 
	C47.378365,343.719757 47.688183,343.898102 48.000462,344.002197 
	C48.000462,344.002197 47.926235,343.999847 48.074284,344.534485 
	C48.383999,344.712524 48.693714,344.890564 48.999756,344.997314 
	C48.999756,344.997314 48.928444,345.000854 49.080441,345.527527 
	C49.385960,345.704651 49.691475,345.881805 50.004494,345.996185 
M389.318817,115.236168 
	C388.681000,127.403717 388.043213,139.571259 387.389130,152.049301 
	C385.550995,152.049301 383.738770,152.049347 381.926544,152.049301 
	C339.095551,152.048096 296.264038,151.936462 253.433975,152.136169 
	C244.561737,152.177536 235.620941,152.866318 226.840286,154.141724 
	C205.569061,157.231415 187.123032,166.890320 171.036789,180.737106 
	C157.997391,191.961197 147.558533,205.410202 140.323746,221.255981 
	C132.751129,237.841690 128.958710,255.072098 130.048141,273.309540 
	C130.377167,278.817749 132.661438,280.956757 138.151596,280.963318 
	C154.484009,280.982727 170.818420,280.824493 187.147751,281.049286 
	C192.349365,281.120850 194.148804,278.191284 194.884933,274.018097 
	C195.511734,270.464783 195.356506,266.768646 196.040329,263.231049 
	C201.394623,235.531876 223.285645,218.216934 250.038712,218.036835 
	C294.367218,217.738388 338.699219,217.949905 383.029724,217.959900 
	C384.623871,217.960266 386.217987,218.101852 388.046570,218.188751 
	C388.046570,228.658279 387.984406,238.640793 388.071838,248.621979 
	C388.118073,253.902054 391.543976,259.950684 395.682526,260.682343 
	C400.480438,261.530518 405.390289,261.806976 409.331543,257.251007 
	C414.521271,251.251846 420.172485,245.637543 425.804962,240.038498 
	C441.197449,224.737274 456.668610,209.515045 472.141724,194.295166 
	C477.697754,188.830078 477.149414,180.535873 471.624359,175.088638 
	C450.857666,154.614441 430.338837,133.889114 409.673981,113.311279 
	C403.162659,106.827377 395.641937,107.421387 389.318817,115.236168 
z"/>
<path fill="#03C3CB" opacity="1.000000" stroke="none" 
	d="
M389.602142,114.954788 
	C395.641937,107.421387 403.162659,106.827377 409.673981,113.311279 
	C430.338837,133.889114 450.857666,154.614441 471.624359,175.088638 
	C477.149414,180.535873 477.697754,188.830078 472.141724,194.295166 
	C456.668610,209.515045 441.197449,224.737274 425.804962,240.038498 
	C420.172485,245.637543 414.521271,251.251846 409.331543,257.251007 
	C405.390289,261.806976 400.480438,261.530518 395.682526,260.682343 
	C391.543976,259.950684 388.118073,253.902054 388.071838,248.621979 
	C387.984406,238.640793 388.046570,228.658279 388.046570,218.188751 
	C386.217987,218.101852 384.623871,217.960266 383.029724,217.959900 
	C338.699219,217.949905 294.367218,217.738388 250.038712,218.036835 
	C223.285645,218.216934 201.394623,235.531876 196.040329,263.231049 
	C195.356506,266.768646 195.511734,270.464783 194.884933,274.018097 
	C194.148804,278.191284 192.349365,281.120850 187.147751,281.049286 
	C170.818420,280.824493 154.484009,280.982727 138.151596,280.963318 
	C132.661438,280.956757 130.377167,278.817749 130.048141,273.309540 
	C128.958710,255.072098 132.751129,237.841690 140.323746,221.255981 
	C147.558533,205.410202 157.997391,191.961197 171.036789,180.737106 
	C187.123032,166.890320 205.569061,157.231415 226.840286,154.141724 
	C235.620941,152.866318 244.561737,152.177536 253.433975,152.136169 
	C296.264038,151.936462 339.095551,152.048096 381.926544,152.049301 
	C383.738770,152.049347 385.550995,152.049301 387.389130,152.049301 
	C388.043213,139.571259 388.681000,127.403717 389.602142,114.954788 
z"/>
<path fill="#02C3CB" opacity="1.000000" stroke="none" 
	d="
M108.937103,390.130768 
	C108.932350,390.424530 108.806770,390.651398 108.094315,390.962616 
	C107.320854,391.342041 107.013435,391.570221 106.706017,391.798401 
	C106.706017,391.798401 106.485954,391.926666 105.885551,391.918457 
	C102.509766,391.947754 99.734390,391.985291 96.959007,392.022827 
	C96.959007,392.022827 97.003349,391.995270 96.878647,391.794739 
	C96.476990,391.396973 96.200035,391.199677 95.923080,391.002411 
	C95.923080,391.002411 95.993385,391.008423 95.883698,390.725250 
	C94.829117,389.967834 93.884224,389.493561 92.939323,389.019318 
	C92.939323,389.019318 93.001617,389.000977 92.871925,388.811584 
	C92.472183,388.412140 92.202133,388.202118 91.932083,387.992065 
	C91.932091,387.992065 92.007729,387.993805 91.880592,387.804291 
	C91.478584,387.409637 91.203712,387.204498 90.928833,386.999390 
	C90.928825,386.999390 91.000977,386.998352 90.873962,386.807739 
	C90.471939,386.411530 90.196938,386.205902 89.921936,386.000275 
	C89.921936,386.000275 89.999634,385.999298 89.872345,385.813049 
	C89.475029,385.416779 89.204994,385.206787 88.934967,384.996765 
	C88.934967,384.996765 89.004219,384.999451 88.888290,384.800812 
	C88.496292,384.403046 88.220222,384.203888 87.944160,384.004761 
	C87.944160,384.004761 88.004402,383.994781 87.884590,383.793762 
	C87.486900,383.396454 87.209023,383.200165 86.931145,383.003906 
	C86.931145,383.003906 86.999008,382.998260 86.872581,382.807190 
	C86.473953,382.410522 86.201752,382.204895 85.929550,381.999268 
	C85.929558,381.999268 86.000656,382.000702 85.880508,381.806519 
	C85.487137,381.408020 85.213928,381.203735 84.940720,380.999420 
	C84.940720,380.999420 85.005806,380.995819 84.887436,380.797791 
	C84.495789,380.399323 84.222511,380.198914 83.949234,379.998474 
	C83.949242,379.998474 84.009697,379.990387 83.889130,379.791565 
	C83.493980,379.395294 83.219391,379.197876 82.944794,379.000458 
	C82.944794,379.000458 83.006912,378.992554 82.887115,378.794128 
	C82.492004,378.398804 82.216682,378.201904 81.941360,378.005005 
	C81.941360,378.005005 82.003319,377.996460 81.883057,377.796539 
	C81.485977,377.397827 81.209160,377.199005 80.932343,377.000183 
	C80.932350,377.000183 81.001564,376.996674 80.874832,376.805603 
	C80.474922,376.408661 80.201744,376.202789 79.928566,375.996887 
	C79.928566,375.996887 80.003204,375.996826 79.876976,375.807861 
	C79.478477,375.411774 79.206207,375.204712 78.933929,374.997620 
	C78.933929,374.997620 79.003387,374.998047 78.883911,374.803223 
	C78.491211,374.406219 78.217979,374.204071 77.944748,374.001892 
	C77.944756,374.001892 78.006310,373.995636 77.892502,373.792206 
	C77.501686,373.394409 77.224678,373.200043 76.947662,373.005707 
	C76.947662,373.005707 77.005096,372.993530 76.886429,372.791321 
	C76.490829,372.393494 76.213890,372.197937 75.936951,372.002380 
	C75.936943,372.002380 76.002708,371.995941 75.877686,371.801788 
	C75.478638,371.404175 75.204628,371.200714 74.930618,370.997284 
	C74.930611,370.997284 75.002892,370.995819 74.875000,370.806976 
	C74.474174,370.411530 74.201241,370.204956 73.928307,369.998352 
	C73.928307,369.998352 74.001564,369.999664 73.878708,369.807495 
	C73.482407,369.409729 73.208969,369.204163 72.935516,368.998596 
	C72.935516,368.998596 73.003754,368.997070 72.883896,368.801666 
	C72.489670,368.406036 72.215309,368.205811 71.940948,368.005585 
	C71.940948,368.005585 72.002876,367.998413 71.888672,367.795105 
	C71.497314,367.396149 71.220161,367.200531 70.943008,367.004913 
	C70.943016,367.004913 71.003899,366.995270 70.883560,366.796234 
	C70.488358,366.398834 70.213501,366.200470 69.938629,366.002136 
	C69.938629,366.002136 70.003403,365.995697 69.882721,365.799072 
	C69.487755,365.402039 69.213463,365.201660 68.939178,365.001282 
	C68.939178,365.001282 69.004234,364.996490 68.883240,364.798401 
	C68.485909,364.400299 68.209572,364.200287 67.933228,364.000305 
	C67.933228,364.000305 68.001808,363.995605 67.874847,363.805664 
	C67.476097,363.410278 67.204308,363.204865 66.932510,362.999451 
	C66.932518,362.999451 67.001816,363.000549 66.883820,362.803894 
	C66.491005,362.406281 66.216171,362.205322 65.941345,362.004364 
	C65.941345,362.004364 66.003624,361.997192 65.885941,361.795227 
	C65.489716,361.396698 65.211182,361.200165 64.932648,361.003601 
	C64.932648,361.003601 64.999962,360.997955 64.875076,360.804871 
	C64.476250,360.407867 64.202309,360.203918 63.928360,360.000000 
	C63.928360,360.000000 64.000191,360.000061 63.877094,359.807800 
	C63.480179,359.411011 63.206364,359.206421 62.932549,359.001862 
	C62.932549,359.001862 63.000660,359.000580 62.882805,358.802826 
	C62.488922,358.405090 62.212894,358.205109 61.936867,358.005157 
	C61.936863,358.005157 62.001106,357.999390 61.884659,357.799255 
	C61.492546,357.401123 61.216877,357.203156 60.941208,357.005157 
	C60.941212,357.005157 61.003109,356.996796 60.884964,356.795288 
	C60.489079,356.396729 60.211346,356.199646 59.933613,356.002533 
	C59.933617,356.002533 60.000969,355.996368 59.873169,355.805176 
	C59.472370,355.408020 59.199368,355.202026 58.926365,354.996063 
	C58.926365,354.996063 59.004116,354.995880 58.876335,354.809143 
	C58.477005,354.413666 58.205452,354.204926 57.933899,353.996185 
	C57.933899,353.996185 58.004124,353.998138 57.883202,353.803467 
	C57.487606,353.406464 57.212933,353.204163 56.938255,353.001862 
	C56.938248,353.001862 57.003361,352.996948 56.885849,352.798096 
	C56.492317,352.402069 56.216297,352.204834 55.940277,352.007629 
	C55.940273,352.007629 56.001644,351.998932 55.886246,351.795593 
	C55.492634,351.396820 55.214420,351.201385 54.936203,351.005981 
	C54.936203,351.005981 55.000370,350.997681 54.878212,350.801331 
	C54.481277,350.404053 54.206497,350.203125 53.931713,350.002228 
	C53.931709,350.002228 54.000118,349.999725 53.878460,349.804626 
	C53.482468,349.406036 53.208130,349.202484 52.933796,348.998962 
	C52.933796,348.998962 53.002789,348.997253 52.879257,348.804321 
	C52.483456,348.406281 52.211182,348.201111 51.938904,347.995972 
	C51.938908,347.995972 52.006618,347.993866 51.883995,347.799500 
	C51.488003,347.402313 51.214634,347.199432 50.941269,346.996552 
	C50.941269,346.996552 51.007462,346.992676 50.885368,346.797791 
	C50.489414,346.403015 50.215549,346.203094 49.941689,346.003143 
	C49.941692,346.003143 50.004494,345.996185 49.884125,345.795807 
	C49.485317,345.397217 49.206886,345.199036 48.928452,345.000854 
	C48.928444,345.000854 48.999756,344.997314 48.870911,344.809601 
	C48.470119,344.414551 48.198181,344.207184 47.926239,343.999847 
	C47.926235,343.999847 48.000462,344.002197 47.879768,343.808350 
	C47.483929,343.410614 47.208775,343.206696 46.933624,343.002747 
	C46.933628,343.002747 47.000622,343.000092 46.882500,342.802063 
	C46.488823,342.404236 46.213264,342.204437 45.937706,342.004608 
	C45.937706,342.004608 46.001778,341.998352 45.884491,341.798706 
	C45.491596,341.401031 45.215984,341.202972 44.940376,341.004913 
	C44.940380,341.004913 45.002876,340.997070 44.884693,340.796326 
	C44.489651,340.397644 44.212791,340.199646 43.935932,340.001678 
	C43.935932,340.001678 44.002563,339.996185 43.877110,339.802612 
	C43.477665,339.404999 43.203674,339.200989 42.929688,338.996948 
	C42.929691,338.996948 43.003311,338.995483 42.874458,338.807129 
	C42.471939,338.411621 42.198277,338.204498 41.924606,337.997375 
	C41.924606,337.997375 42.002815,337.997192 41.875229,337.810974 
	C41.476086,337.416901 41.204525,337.209015 40.932964,337.001160 
	C40.932964,337.001160 41.001270,337.002319 40.887112,336.801941 
	C40.495373,336.404907 40.217796,336.208221 39.940216,336.011536 
	C39.940220,336.011536 39.999954,336.000427 39.885986,335.795197 
	C39.492947,335.396576 39.213875,335.203186 38.934803,335.009796 
	C38.934803,335.009796 38.997810,334.999695 38.877319,334.802002 
	C38.482292,334.403625 38.207756,334.203003 37.933220,334.002350 
	C37.933220,334.002350 38.000813,333.999207 37.879868,333.803406 
	C37.484123,333.405823 37.209324,333.204010 36.934525,333.002197 
	C36.934525,333.002197 37.001522,332.998627 36.880421,332.802063 
	C36.483669,332.404236 36.208015,332.202972 35.932358,332.001709 
	C35.932354,332.001709 36.000759,331.998413 35.876671,331.805115 
	C35.478603,331.407990 35.204624,331.204132 34.930649,331.000275 
	C34.930649,331.000275 35.000530,330.999542 34.877647,330.806824 
	C34.480995,330.411469 34.207230,330.208832 33.933464,330.006195 
	C33.933468,330.006195 33.999279,330.002106 33.879448,329.802429 
	C33.480770,329.403503 33.201916,329.204285 32.923058,329.005066 
	C32.923058,329.005066 32.995296,329.001801 32.868591,328.812683 
	C32.470039,328.415558 32.198193,328.207520 31.926346,327.999481 
	C31.926348,327.999481 32.000240,328.000580 31.875801,327.810059 
	C31.478607,327.413605 31.205851,327.207703 30.933092,327.001801 
	C30.933090,327.001801 31.001003,327.000610 30.882660,326.802734 
	C30.488659,326.403870 30.212999,326.202820 29.937340,326.001801 
	C29.937342,326.001801 30.002935,325.997070 29.882343,325.800720 
	C29.489014,325.401917 29.216274,325.199524 28.943533,324.997101 
	C28.943533,324.997101 29.003672,324.994324 28.950901,324.710815 
	C28.520937,323.937592 28.143744,323.447876 27.766552,322.958130 
	C24.537571,319.745239 25.585228,311.541992 30.266903,307.162750 
	C40.573399,297.522156 50.673664,287.653259 60.649899,277.669525 
	C71.274124,267.037292 81.861526,256.352661 92.050591,245.308563 
	C96.339706,240.659531 101.511261,239.823944 106.461357,241.525513 
	C111.704933,243.327988 113.995705,248.397964 113.983887,254.141663 
	C113.963745,263.929138 113.978340,273.716705 113.978340,284.050903 
	C116.010094,284.050903 117.623039,284.050934 119.235977,284.050903 
	C161.884613,284.049988 204.535217,283.807831 247.180969,284.157166 
	C266.442902,284.314972 282.597565,278.265625 295.052582,263.448883 
	C301.625092,255.630051 304.673615,246.190506 306.035370,236.176086 
	C306.456116,233.081818 306.360962,229.842010 307.275452,226.910095 
	C308.323151,223.551147 310.307526,220.952881 314.704224,220.999817 
	C331.195404,221.175903 347.689514,221.059784 364.182465,221.090317 
	C368.555328,221.098404 371.734467,223.826950 371.882812,228.244980 
	C372.337128,241.775818 371.058197,254.945099 366.648895,268.031189 
	C359.689575,288.685211 348.107422,306.067444 331.967957,320.270416 
	C315.377258,334.870483 296.335205,345.009613 273.196899,347.964172 
	C270.558990,348.261993 268.746216,348.559814 266.933441,348.857635 
	C266.933441,348.857635 266.599701,348.981842 265.933624,348.956665 
	C215.511230,348.951996 165.754898,348.972534 115.705521,349.052307 
	C114.935669,349.451538 114.458893,349.791565 113.982109,350.131592 
	C113.982101,350.131561 113.990318,349.984283 113.743637,350.215607 
	C113.023621,352.458588 112.171143,354.464539 112.140808,356.482849 
	C111.987579,366.677216 112.048363,376.874786 112.034081,387.071228 
	C112.034081,387.071228 112.020821,387.009155 111.714417,387.068359 
	C110.584381,388.128662 109.760742,389.129700 108.937103,390.130768 
z"/>
<path fill="#44B4BD" opacity="1.000000" stroke="none" 
	d="
M115.998581,348.993103 
	C165.754898,348.972534 215.511230,348.951996 265.755615,348.960175 
	C264.715576,349.328064 263.187714,349.962280 261.659363,349.963562 
	C213.413177,350.004242 165.166931,349.983429 116.458450,349.696533 
	C115.996208,349.421112 115.998581,348.993073 115.998581,348.993103 
z"/>
<path fill="#36BBC0" opacity="1.000000" stroke="none" 
	d="
M112.387741,386.874542 
	C112.048363,376.874786 111.987579,366.677216 112.140808,356.482849 
	C112.171143,354.464539 113.023621,352.458588 113.817276,350.219543 
	C114.087601,358.984314 114.140732,367.978851 113.932922,376.967407 
	C113.857925,380.211639 113.156807,383.441467 112.387741,386.874542 
z"/>
<path fill="#36BBC0" opacity="1.000000" stroke="none" 
	d="
M97.175522,392.377625 
	C99.734390,391.985291 102.509766,391.947754 105.758209,391.917114 
	C103.284859,392.193451 100.338455,392.462952 97.175522,392.377625 
z"/>
<path fill="#36BBC0" opacity="1.000000" stroke="none" 
	d="
M109.284958,390.052795 
	C109.760742,389.129700 110.584381,388.128662 111.745369,387.075439 
	C111.266083,388.007111 110.449448,388.990967 109.284958,390.052795 
z"/>
<path fill="#44B4BD" opacity="1.000000" stroke="none" 
	d="
M267.349915,348.922516 
	C268.746216,348.559814 270.558990,348.261993 272.782928,347.954590 
	C271.384857,348.292480 269.575623,348.639954 267.349915,348.922516 
z"/>
<path fill="#36BBC0" opacity="1.000000" stroke="none" 
	d="
M93.064865,389.324799 
	C93.884224,389.493561 94.829117,389.967834 95.880341,390.760345 
	C95.054581,390.595856 94.122498,390.113068 93.064865,389.324799 
z"/>
<path fill="#36BBC0" opacity="1.000000" stroke="none" 
	d="
M27.867353,323.271454 
	C28.143744,323.447876 28.520937,323.937592 28.942430,324.739685 
	C28.647207,324.562958 28.307682,324.073853 27.867353,323.271454 
z"/>
<path fill="#36BBC0" opacity="1.000000" stroke="none" 
	d="
M115.705521,349.052307 
	C115.998581,348.993073 115.996208,349.421112 115.992661,349.635071 
	C115.544594,349.916077 115.100067,349.983063 114.318832,350.090820 
	C114.458893,349.791565 114.935669,349.451538 115.705521,349.052307 
z"/>
<path fill="#36BBC0" opacity="1.000000" stroke="none" 
	d="
M77.015953,373.269287 
	C77.224678,373.200043 77.501686,373.394409 77.887390,373.822693 
	C77.692139,373.882050 77.388191,373.707458 77.015953,373.269287 
z"/>
<path fill="#36BBC0" opacity="1.000000" stroke="none" 
	d="
M64.001923,360.266144 
	C64.202309,360.203918 64.476250,360.407867 64.874840,360.838623 
	C64.691483,360.887756 64.383476,360.710022 64.001923,360.266144 
z"/>
<path fill="#36BBC0" opacity="1.000000" stroke="none" 
	d="
M76.004501,372.268860 
	C76.213890,372.197937 76.490829,372.393494 76.881714,372.820282 
	C76.687790,372.879425 76.379913,372.707367 76.004501,372.268860 
z"/>
<path fill="#36BBC0" opacity="1.000000" stroke="none" 
	d="
M75.005753,371.261932 
	C75.204628,371.200714 75.478638,371.404175 75.876389,371.834839 
	C75.693710,371.883514 75.387306,371.705048 75.005753,371.261932 
z"/>
<path fill="#36BBC0" opacity="1.000000" stroke="none" 
	d="
M74.002335,370.265503 
	C74.201241,370.204956 74.474174,370.411530 74.875824,370.843109 
	C74.695145,370.889618 74.385757,370.711121 74.002335,370.265503 
z"/>
<path fill="#36BBC0" opacity="1.000000" stroke="none" 
	d="
M73.009285,369.263763 
	C73.208969,369.204163 73.482407,369.409729 73.878113,369.844116 
	C73.694603,369.891571 73.388824,369.710236 73.009285,369.263763 
z"/>
<path fill="#36BBC0" opacity="1.000000" stroke="none" 
	d="
M72.010971,368.270996 
	C72.215309,368.205811 72.489670,368.406036 72.882355,368.835754 
	C72.694107,368.888947 72.387550,368.712646 72.010971,368.270996 
z"/>
<path fill="#36BBC0" opacity="1.000000" stroke="none" 
	d="
M71.007538,367.271851 
	C71.220161,367.200531 71.497314,367.396149 71.883766,367.825867 
	C71.686066,367.886230 71.379066,367.712494 71.007538,367.271851 
z"/>
<path fill="#36BBC0" opacity="1.000000" stroke="none" 
	d="
M70.013412,366.263550 
	C70.213501,366.200470 70.488358,366.398834 70.879738,366.826813 
	C70.693573,366.879303 70.390884,366.702148 70.013412,366.263550 
z"/>
<path fill="#36BBC0" opacity="1.000000" stroke="none" 
	d="
M69.006866,365.268494 
	C69.213463,365.201660 69.487755,365.402039 69.880524,365.831543 
	C69.690865,365.885651 69.382713,365.710693 69.006866,365.268494 
z"/>
<path fill="#36BBC0" opacity="1.000000" stroke="none" 
	d="
M68.010216,364.262360 
	C68.209572,364.200287 68.485909,364.400299 68.880356,364.830902 
	C68.694717,364.882477 68.390961,364.703461 68.010216,364.262360 
z"/>
<path fill="#36BBC0" opacity="1.000000" stroke="none" 
	d="
M67.003860,363.266846 
	C67.204308,363.204865 67.476097,363.410278 67.875374,363.840027 
	C67.693634,363.887634 67.384422,363.710907 67.003860,363.266846 
z"/>
<path fill="#36BBC0" opacity="1.000000" stroke="none" 
	d="
M66.011032,362.269836 
	C66.216171,362.205322 66.491005,362.406281 66.882019,362.838501 
	C66.692375,362.891571 66.386551,362.713440 66.011032,362.269836 
z"/>
<path fill="#36BBC0" opacity="1.000000" stroke="none" 
	d="
M65.004105,361.268555 
	C65.211182,361.200165 65.489716,361.396698 65.881622,361.826263 
	C65.688515,361.884064 65.382042,361.708801 65.004105,361.268555 
z"/>
<path fill="#36BBC0" opacity="1.000000" stroke="none" 
	d="
M62.002075,358.274353 
	C62.212894,358.205109 62.488922,358.405090 62.880920,358.836853 
	C62.687019,358.893585 62.377151,358.718567 62.002075,358.274353 
z"/>
<path fill="#36BBC0" opacity="1.000000" stroke="none" 
	d="
M86.001572,382.266357 
	C86.201752,382.204895 86.473953,382.410522 86.872917,382.841248 
	C86.690987,382.888733 86.382294,382.711090 86.001572,382.266357 
z"/>
<path fill="#36BBC0" opacity="1.000000" stroke="none" 
	d="
M107.031738,391.842834 
	C107.013435,391.570221 107.320854,391.342041 107.900879,391.018188 
	C107.901489,391.244110 107.629478,391.565674 107.031738,391.842834 
z"/>
<path fill="#36BBC0" opacity="1.000000" stroke="none" 
	d="
M95.999115,391.266785 
	C96.200035,391.199677 96.476990,391.396973 96.877121,391.820801 
	C96.691917,391.875305 96.383530,391.703217 95.999115,391.266785 
z"/>
<path fill="#36BBC0" opacity="1.000000" stroke="none" 
	d="
M92.006683,388.259186 
	C92.202133,388.202118 92.472183,388.412140 92.875443,388.843811 
	C92.699532,388.885773 92.390411,388.706055 92.006683,388.259186 
z"/>
<path fill="#36BBC0" opacity="1.000000" stroke="none" 
	d="
M91.006195,387.264343 
	C91.203712,387.204498 91.478584,387.409637 91.879799,387.842102 
	C91.698616,387.889404 91.391090,387.709381 91.006195,387.264343 
z"/>
<path fill="#36BBC0" opacity="1.000000" stroke="none" 
	d="
M89.997192,386.267548 
	C90.196938,386.205902 90.471939,386.411530 90.874557,386.843811 
	C90.692261,386.891937 90.382347,386.713379 89.997192,386.267548 
z"/>
<path fill="#36BBC0" opacity="1.000000" stroke="none" 
	d="
M89.004951,385.265198 
	C89.204994,385.206787 89.475029,385.416779 89.872925,385.851868 
	C89.692177,385.895844 89.383560,385.714752 89.004951,385.265198 
z"/>
<path fill="#36BBC0" opacity="1.000000" stroke="none" 
	d="
M88.016144,384.268036 
	C88.220222,384.203888 88.496292,384.403046 88.885666,384.835358 
	C88.695351,384.889465 88.391739,384.710388 88.016144,384.268036 
z"/>
<path fill="#36BBC0" opacity="1.000000" stroke="none" 
	d="
M87.000870,383.270447 
	C87.209023,383.200165 87.486900,383.396454 87.880508,383.823975 
	C87.687691,383.882507 87.379135,383.709717 87.000870,383.270447 
z"/>
<path fill="#36BBC0" opacity="1.000000" stroke="none" 
	d="
M78.012985,374.268158 
	C78.217979,374.204071 78.491211,374.406219 78.882568,374.837891 
	C78.694206,374.889771 78.387718,374.712097 78.012985,374.268158 
z"/>
<path fill="#36BBC0" opacity="1.000000" stroke="none" 
	d="
M85.007751,381.267700 
	C85.213928,381.203735 85.487137,381.408020 85.879761,381.842041 
	C85.691040,381.893188 85.382912,381.714569 85.007751,381.267700 
z"/>
<path fill="#36BBC0" opacity="1.000000" stroke="none" 
	d="
M84.020630,380.261047 
	C84.222511,380.198914 84.495789,380.399323 84.884033,380.830170 
	C84.696686,380.881622 84.394363,380.702637 84.020630,380.261047 
z"/>
<path fill="#36BBC0" opacity="1.000000" stroke="none" 
	d="
M83.018234,379.262268 
	C83.219391,379.197876 83.493980,379.395294 83.885086,379.821777 
	C83.698296,379.875244 83.394974,379.699677 83.018234,379.262268 
z"/>
<path fill="#36BBC0" opacity="1.000000" stroke="none" 
	d="
M82.011978,378.269196 
	C82.216682,378.201904 82.492004,378.398804 82.883820,378.825256 
	C82.694405,378.881012 82.388496,378.707184 82.011978,378.269196 
z"/>
<path fill="#36BBC0" opacity="1.000000" stroke="none" 
	d="
M81.005447,377.264465 
	C81.209160,377.199005 81.485977,377.397827 81.879303,377.827576 
	C81.690063,377.881958 81.384308,377.705383 81.005447,377.264465 
z"/>
<path fill="#36BBC0" opacity="1.000000" stroke="none" 
	d="
M80.003258,376.263123 
	C80.201744,376.202789 80.474922,376.408661 80.875320,376.840271 
	C80.694344,376.887085 80.386147,376.708191 80.003258,376.263123 
z"/>
<path fill="#36BBC0" opacity="1.000000" stroke="none" 
	d="
M79.006851,375.264343 
	C79.206207,375.204712 79.478477,375.411774 79.877090,375.845154 
	C79.695541,375.891327 79.387657,375.711212 79.006851,375.264343 
z"/>
<path fill="#36BBC0" opacity="1.000000" stroke="none" 
	d="
M38.997612,335.278442 
	C39.213875,335.203186 39.492947,335.396576 39.880203,335.825012 
	C39.679073,335.889099 39.369751,335.718079 38.997612,335.278442 
z"/>
<path fill="#36BBC0" opacity="1.000000" stroke="none" 
	d="
M47.001083,343.272095 
	C47.208775,343.206696 47.483929,343.410614 47.878540,343.845459 
	C47.688183,343.898102 47.378365,343.719757 47.001083,343.272095 
z"/>
<path fill="#36BBC0" opacity="1.000000" stroke="none" 
	d="
M46.006062,342.271210 
	C46.213264,342.204437 46.488823,342.404236 46.880215,342.835510 
	C46.688835,342.890594 46.381626,342.714203 46.006062,342.271210 
z"/>
<path fill="#36BBC0" opacity="1.000000" stroke="none" 
	d="
M45.007584,341.271179 
	C45.215984,341.202972 45.491596,341.401031 45.881218,341.830750 
	C45.688412,341.887421 45.381599,341.712433 45.007584,341.271179 
z"/>
<path fill="#36BBC0" opacity="1.000000" stroke="none" 
	d="
M44.004425,340.268250 
	C44.212791,340.199646 44.489651,340.397644 44.880951,340.827606 
	C44.687904,340.884674 44.380413,340.709747 44.004425,340.268250 
z"/>
<path fill="#36BBC0" opacity="1.000000" stroke="none" 
	d="
M43.005226,339.261749 
	C43.203674,339.200989 43.477665,339.404999 43.876152,339.835999 
	C43.694016,339.884186 43.387386,339.705353 43.005226,339.261749 
z"/>
<path fill="#36BBC0" opacity="1.000000" stroke="none" 
	d="
M42.000320,338.264404 
	C42.198277,338.204498 42.471939,338.411621 42.875244,338.843933 
	C42.695267,338.889893 42.385647,338.710663 42.000320,338.264404 
z"/>
<path fill="#36BBC0" opacity="1.000000" stroke="none" 
	d="
M41.005898,337.267944 
	C41.204525,337.209015 41.476086,337.416901 41.875366,337.850098 
	C41.695000,337.895203 41.386913,337.714966 41.005898,337.267944 
z"/>
<path fill="#36BBC0" opacity="1.000000" stroke="none" 
	d="
M40.006233,336.278534 
	C40.217796,336.208221 40.495373,336.404907 40.883987,336.835938 
	C40.687428,336.895386 40.379841,336.720459 40.006233,336.278534 
z"/>
<path fill="#36BBC0" opacity="1.000000" stroke="none" 
	d="
M48.000259,344.267151 
	C48.198181,344.207184 48.470119,344.414551 48.872742,344.845276 
	C48.693714,344.890564 48.383999,344.712524 48.000259,344.267151 
z"/>
<path fill="#36BBC0" opacity="1.000000" stroke="none" 
	d="
M38.001865,334.269104 
	C38.207756,334.203003 38.482292,334.403625 38.874786,334.833801 
	C38.685337,334.887482 38.377926,334.711670 38.001865,334.269104 
z"/>
<path fill="#36BBC0" opacity="1.000000" stroke="none" 
	d="
M37.003532,333.269653 
	C37.209324,333.204010 37.484123,333.405823 37.878456,333.837219 
	C37.689510,333.890259 37.381027,333.713684 37.003532,333.269653 
z"/>
<path fill="#36BBC0" opacity="1.000000" stroke="none" 
	d="
M36.002659,332.268738 
	C36.208015,332.202972 36.483669,332.404236 36.878632,332.835571 
	C36.689613,332.889008 36.381287,332.712402 36.002659,332.268738 
z"/>
<path fill="#36BBC0" opacity="1.000000" stroke="none" 
	d="
M35.001595,331.267853 
	C35.204624,331.204132 35.478603,331.407990 35.876213,331.839355 
	C35.690739,331.889709 35.381641,331.712555 35.001595,331.267853 
z"/>
<path fill="#36BBC0" opacity="1.000000" stroke="none" 
	d="
M34.004246,330.272888 
	C34.207230,330.208832 34.480995,330.411469 34.877350,330.841736 
	C34.691628,330.892761 34.383327,330.716156 34.004246,330.272888 
z"/>
<path fill="#36BBC0" opacity="1.000000" stroke="none" 
	d="
M32.993416,329.273071 
	C33.201916,329.204285 33.480770,329.403503 33.876362,329.835266 
	C33.683327,329.892181 33.373547,329.716614 32.993416,329.273071 
z"/>
<path fill="#36BBC0" opacity="1.000000" stroke="none" 
	d="
M31.996998,328.268555 
	C32.198193,328.207520 32.470039,328.415558 32.870159,328.848816 
	C32.688168,328.895264 32.377907,328.716431 31.996998,328.268555 
z"/>
<path fill="#36BBC0" opacity="1.000000" stroke="none" 
	d="
M29.015488,325.260681 
	C29.216274,325.199524 29.489014,325.401917 29.879887,325.833496 
	C29.694492,325.883148 29.390968,325.703674 29.015488,325.260681 
z"/>
<path fill="#36BBC0" opacity="1.000000" stroke="none" 
	d="
M31.011280,327.263947 
	C31.205851,327.207703 31.478607,327.413605 31.875217,327.846985 
	C31.695869,327.891663 31.392668,327.708862 31.011280,327.263947 
z"/>
<path fill="#36BBC0" opacity="1.000000" stroke="none" 
	d="
M61.008240,357.271240 
	C61.216877,357.203156 61.492546,357.401123 61.881222,357.831299 
	C61.687908,357.888092 61.381588,357.712708 61.008240,357.271240 
z"/>
<path fill="#36BBC0" opacity="1.000000" stroke="none" 
	d="
M60.003250,356.268646 
	C60.211346,356.199646 60.489079,356.396729 60.880959,356.826294 
	C60.687702,356.884094 60.380299,356.709442 60.003250,356.268646 
z"/>
<path fill="#36BBC0" opacity="1.000000" stroke="none" 
	d="
M59.000519,355.262878 
	C59.199368,355.202026 59.472370,355.408020 59.873280,355.838989 
	C59.692348,355.885895 59.383511,355.707794 59.000519,355.262878 
z"/>
<path fill="#36BBC0" opacity="1.000000" stroke="none" 
	d="
M58.005676,354.264221 
	C58.205452,354.204926 58.477005,354.413666 58.876495,354.848022 
	C58.695438,354.893158 58.386448,354.712677 58.005676,354.264221 
z"/>
<path fill="#36BBC0" opacity="1.000000" stroke="none" 
	d="
M57.014168,353.264465 
	C57.212933,353.204163 57.487606,353.406464 57.881889,353.838562 
	C57.697689,353.887909 57.393887,353.707489 57.014168,353.264465 
z"/>
<path fill="#36BBC0" opacity="1.000000" stroke="none" 
	d="
M56.007225,352.274353 
	C56.216297,352.204834 56.492317,352.402069 56.883003,352.830627 
	C56.689838,352.888336 56.382004,352.714691 56.007225,352.274353 
z"/>
<path fill="#36BBC0" opacity="1.000000" stroke="none" 
	d="
M55.003288,351.272461 
	C55.214420,351.201385 55.492634,351.396820 55.881508,351.826233 
	C55.684898,351.886414 55.377636,351.712646 55.003288,351.272461 
z"/>
<path fill="#36BBC0" opacity="1.000000" stroke="none" 
	d="
M63.004112,359.268829 
	C63.206364,359.206421 63.480179,359.411011 63.877136,359.843719 
	C63.692074,359.893158 63.383877,359.714478 63.004112,359.268829 
z"/>
<path fill="#36BBC0" opacity="1.000000" stroke="none" 
	d="
M54.000984,350.269592 
	C54.206497,350.203125 54.481277,350.404053 54.876270,350.833618 
	C54.687737,350.887146 54.378994,350.712036 54.000984,350.269592 
z"/>
<path fill="#36BBC0" opacity="1.000000" stroke="none" 
	d="
M30.001585,326.271820 
	C30.212999,326.202820 30.488659,326.403870 30.880575,326.836639 
	C30.686499,326.892853 30.376165,326.717346 30.001585,326.271820 
z"/>
<path fill="#36BBC0" opacity="1.000000" stroke="none" 
	d="
M53.002098,349.267578 
	C53.208130,349.202484 53.482468,349.406036 53.877548,349.838867 
	C53.688999,349.890808 53.379700,349.713501 53.002098,349.267578 
z"/>
<path fill="#36BBC0" opacity="1.000000" stroke="none" 
	d="
M52.010124,348.262146 
	C52.211182,348.201111 52.483456,348.406281 52.878525,348.838837 
	C52.694660,348.886963 52.388004,348.707642 52.010124,348.262146 
z"/>
<path fill="#36BBC0" opacity="1.000000" stroke="none" 
	d="
M51.013161,347.261749 
	C51.214634,347.199432 51.488003,347.402313 51.882370,347.833374 
	C51.697262,347.883362 51.391159,347.705139 51.013161,347.261749 
z"/>
<path fill="#36BBC0" opacity="1.000000" stroke="none" 
	d="
M50.014481,346.266785 
	C50.215549,346.203094 50.489414,346.403015 50.883377,346.830902 
	C50.698078,346.882751 50.392681,346.706604 50.014481,346.266785 
z"/>
<path fill="#36BBC0" opacity="1.000000" stroke="none" 
	d="
M49.004448,345.264191 
	C49.206886,345.199036 49.485317,345.397217 49.880371,345.827179 
	C49.691475,345.881805 49.385960,345.704651 49.004448,345.264191 
z"/>
</svg>