<?xml version="1.0" encoding="UTF-8"?>
<svg version="1.1" xmlns="http://www.w3.org/2000/svg" width="500" height="500">
<path d="M0 0 C4.8060457 2.88727904 8.59153367 6.31009264 12.52441406 10.28149414 C13.14630615 10.90148788 13.76819824 11.52148163 14.40893555 12.16026306 C16.44940772 14.1970507 18.48262427 16.24091319 20.515625 18.28515625 C21.93678897 19.70751319 23.35832375 21.12949971 24.7802124 22.5511322 C27.75209329 25.52457382 30.72059417 28.50133488 33.68652344 31.48071289 C37.49015869 35.301376 41.3003822 39.11538463 45.11291885 42.92716312 C48.04538959 45.85990555 50.97524871 48.79524509 53.90422821 51.73147392 C55.30867306 53.13910198 56.71372531 54.54612429 58.1193924 55.95253181 C60.07984756 57.915152 62.03697651 59.88102775 63.99316406 61.84790039 C64.57499451 62.42927765 65.15682495 63.01065491 65.75628662 63.60964966 C72.30062229 70.20639297 72.30062229 70.20639297 72.6875 75.5625 C72.5130566 80.19421276 71.40966206 82.21558507 68.234375 85.55078125 C67.41799561 86.41533936 66.60161621 87.27989746 65.76049805 88.1706543 C64.39405151 89.57118042 64.39405151 89.57118042 63 91 C62.51898834 91.49682281 62.03797668 91.99364563 61.54238892 92.50552368 C58.44735194 95.70016699 55.3224562 98.86332698 52.17700195 102.00830078 C50.53503206 103.65250532 48.90128959 105.30462522 47.26757812 106.95703125 C46.22184133 108.00569437 45.17563553 109.05389004 44.12890625 110.1015625 C43.64249161 110.59516266 43.15607697 111.08876282 42.65492249 111.59732056 C39.22888675 115 39.22888675 115 37 115 C36.690625 115.79664063 36.690625 115.79664063 36.375 116.609375 C34.42038808 120.00773436 31.77876283 122.51055928 29 125.25 C28.4534375 125.80429688 27.906875 126.35859375 27.34375 126.9296875 C23.2533867 131 23.2533867 131 21 131 C20.74476563 131.58048096 20.48953125 132.16096191 20.2265625 132.7590332 C18.874786 135.22876977 17.36983874 136.87329644 15.375 138.85546875 C14.66859375 139.55994141 13.9621875 140.26441406 13.234375 140.99023438 C12.49703125 141.71533203 11.7596875 142.44042969 11 143.1875 C10.26265625 143.92419922 9.5253125 144.66089844 8.765625 145.41992188 C1.98065082 152.14918003 1.98065082 152.14918003 -3.8125 152.375 C-7.75558648 152.34086072 -8.7221776 152.2083668 -12 149.75 C-15.62666032 144.76334206 -16.28308394 141.3199858 -16.1953125 135.171875 C-16.19106766 134.04836639 -16.19106766 134.04836639 -16.18673706 132.90216064 C-16.1755726 130.51794224 -16.15047531 128.13410421 -16.125 125.75 C-16.11496535 124.13021377 -16.10584035 122.51042164 -16.09765625 120.890625 C-16.07564555 116.92693754 -16.04114175 112.96353319 -16 109 C-34.60263266 109.08401664 -53.20517663 109.17919276 -71.80768394 109.28752708 C-80.44582741 109.33757448 -89.08396176 109.38401809 -97.72216797 109.421875 C-105.25428599 109.45489374 -112.78633159 109.49477904 -120.31836951 109.54279006 C-124.30373842 109.56795714 -128.2890599 109.5897669 -132.27448654 109.60334396 C-136.03211419 109.61625374 -139.78957834 109.63840245 -143.54711533 109.66738319 C-145.57050154 109.68065708 -147.5939436 109.68436315 -149.61737061 109.68769836 C-165.45908238 109.83201929 -178.94420628 113.27080907 -191 124 C-191.62648438 124.52207031 -192.25296875 125.04414063 -192.8984375 125.58203125 C-203.69616723 135.27169702 -206.86745477 150.10899244 -208.47265625 163.8984375 C-208.9523647 166.71983384 -209.45644005 168.61398425 -211 171 C-213.59571805 172.29785903 -215.50510173 172.14126772 -218.41186523 172.16113281 C-219.54321396 172.17074036 -220.67456268 172.1803479 -221.8401947 172.19024658 C-223.06726639 172.19449646 -224.29433807 172.19874634 -225.55859375 172.203125 C-226.81382339 172.20882507 -228.06905304 172.21452515 -229.36231995 172.22039795 C-232.02128733 172.22985771 -234.68014156 172.23674972 -237.33911133 172.24023438 C-240.74678183 172.24572275 -244.15405347 172.26975869 -247.56159878 172.29820633 C-250.81056704 172.32130299 -254.05955486 172.32328018 -257.30859375 172.328125 C-259.14616493 172.3466452 -259.14616493 172.3466452 -261.02085876 172.36553955 C-262.15535965 172.36253845 -263.28986053 172.35953735 -264.45874023 172.35644531 C-265.95859718 172.36191376 -265.95859718 172.36191376 -267.48875427 172.36749268 C-270.40391328 171.94089182 -271.24511877 171.31265705 -273 169 C-279.04142325 156.9171535 -272.4383192 135.28150852 -268.75 123.4375 C-262.3928865 105.29323856 -252.19962163 90.68401141 -239 77 C-238.38382813 76.33226562 -237.76765625 75.66453125 -237.1328125 74.9765625 C-218.40729831 55.17589917 -189.20598784 43.71013709 -162.28326803 42.70841813 C-153.25014663 42.46140592 -144.2127196 42.53052272 -135.17750525 42.59442425 C-130.97357347 42.6197853 -126.76962454 42.62180676 -122.56562805 42.62652588 C-114.64012564 42.63885541 -106.71484943 42.67153805 -98.7894457 42.71192384 C-89.75167794 42.7569577 -80.71389818 42.77870727 -71.67604578 42.79870558 C-53.1172366 42.84028221 -34.55863662 42.91043453 -16 43 C-16.01571045 42.00145996 -16.0314209 41.00291992 -16.04760742 39.97412109 C-16.10212619 36.25057113 -16.13642934 32.5270561 -16.16479492 28.80322266 C-16.17983176 27.19508928 -16.20026672 25.58699656 -16.22631836 23.97900391 C-16.26292822 21.66037936 -16.27977722 19.34229951 -16.29296875 17.0234375 C-16.30845261 16.31069672 -16.32393646 15.59795593 -16.33988953 14.86361694 C-16.34145702 10.15786841 -15.47330845 6.99743955 -13 3 C-9.21533831 -0.24399574 -4.84176285 -1.11194192 0 0 Z " fill="#01C3CB" transform="translate(403,108)"/>
<path d="M0 0 C1.25002808 -0.00478363 2.50005615 -0.00956726 3.78796387 -0.01449585 C6.43162595 -0.01789933 9.07297687 -0.01118867 11.71630859 0.01220703 C15.09967149 0.04069765 18.48105156 0.02428966 21.86434174 -0.00565529 C25.09713174 -0.02809622 28.32968409 -0.0123714 31.5625 0 C33.38291809 -0.01518173 33.38291809 -0.01518173 35.2401123 -0.03067017 C43.57371552 0.0857729 43.57371552 0.0857729 47.04516602 2.9230957 C48.25293497 5.60127506 48.78452196 7.27142324 48.77734375 10.18359375 C48.78040527 11.03284424 48.7834668 11.88209473 48.78662109 12.75708008 C48.76422363 13.65450928 48.74182617 14.55193848 48.71875 15.4765625 C48.69675537 16.87781372 48.69675537 16.87781372 48.67431641 18.30737305 C47.8276145 49.85915339 32.34344884 78.11330161 9.7890625 99.5625 C-13.19169851 120.45765593 -42.89027322 130.25437957 -73.60180664 130.00463867 C-75.1018319 130.00378919 -76.60185839 130.00427377 -78.10188293 130.00596619 C-82.11325878 130.00681507 -86.12435683 129.98937238 -90.13566899 129.96824431 C-94.35031367 129.94928941 -98.56496709 129.94771244 -102.77964783 129.94416809 C-110.73356831 129.9349022 -118.68736276 129.91036362 -126.64122814 129.88011962 C-135.70793744 129.84640407 -144.77465326 129.8300468 -153.8414098 129.81503332 C-172.4672609 129.78380815 -191.09299526 129.73115574 -209.71875 129.6640625 C-209.70303955 130.66260254 -209.6873291 131.66114258 -209.67114258 132.68994141 C-209.61662381 136.41349137 -209.58232066 140.1370064 -209.55395508 143.86083984 C-209.53891824 145.46897322 -209.51848328 147.07706594 -209.49243164 148.68505859 C-209.45582178 151.00368314 -209.43897278 153.32176299 -209.42578125 155.640625 C-209.41029739 156.35336578 -209.39481354 157.06610657 -209.37886047 157.80044556 C-209.37729281 162.5067234 -210.24987445 165.66413317 -212.71875 169.6640625 C-216.12083454 172.6659018 -219.71124483 173.53811799 -224.17358398 173.28591919 C-227.37576903 172.503534 -228.7595375 171.22628511 -231.15625 168.97216797 C-232.03112061 168.15198181 -232.90599121 167.33179565 -233.80737305 166.48675537 C-234.77997449 165.54807256 -235.75033919 164.60706806 -236.71875 163.6640625 C-237.22934967 163.16754433 -237.73994934 162.67102615 -238.26602173 162.15946198 C-242.38789098 158.13448264 -246.4613461 154.06177967 -250.53125 149.984375 C-251.83481535 148.68148478 -253.138529 147.3787429 -254.44238281 146.07614136 C-257.15348039 143.36650724 -259.86278811 140.65509989 -262.57080078 137.94238281 C-266.0419683 134.46547867 -269.51766076 130.99313776 -272.99467468 127.52208138 C-275.67815748 124.84220685 -278.35926067 122.15996187 -281.03964233 119.47698593 C-282.32114277 118.19481903 -283.60338478 116.91339285 -284.88638306 115.63272476 C-286.67147605 113.85016696 -288.45334005 112.06444318 -290.234375 110.27783203 C-290.76316757 109.75106369 -291.29196014 109.22429535 -291.83677673 108.68156433 C-295.46552686 105.03170477 -298.02712903 102.35028174 -298.40625 97.1015625 C-298.2318066 92.46984974 -297.12841206 90.44847743 -293.953125 87.11328125 C-293.13674561 86.24872314 -292.32036621 85.38416504 -291.47924805 84.4934082 C-290.11280151 83.09288208 -290.11280151 83.09288208 -288.71875 81.6640625 C-288.23773834 81.16723969 -287.75672668 80.67041687 -287.26113892 80.15853882 C-284.16610194 76.96389551 -281.0412062 73.80073552 -277.89575195 70.65576172 C-276.25378206 69.01155718 -274.62003959 67.35943728 -272.98632812 65.70703125 C-271.94059133 64.65836813 -270.89438553 63.61017246 -269.84765625 62.5625 C-269.36124161 62.06889984 -268.87482697 61.57529968 -268.37367249 61.06674194 C-264.94763675 57.6640625 -264.94763675 57.6640625 -262.71875 57.6640625 C-262.5125 57.13296875 -262.30625 56.601875 -262.09375 56.0546875 C-260.13913808 52.65632814 -257.49751283 50.15350322 -254.71875 47.4140625 C-253.89890625 46.58261719 -253.89890625 46.58261719 -253.0625 45.734375 C-248.9721367 41.6640625 -248.9721367 41.6640625 -246.71875 41.6640625 C-246.33589844 40.79334106 -246.33589844 40.79334106 -245.9453125 39.9050293 C-244.593536 37.43529273 -243.08858874 35.79076606 -241.09375 33.80859375 C-240.38734375 33.10412109 -239.6809375 32.39964844 -238.953125 31.67382812 C-237.84710938 30.58618164 -237.84710938 30.58618164 -236.71875 29.4765625 C-235.98140625 28.73986328 -235.2440625 28.00316406 -234.484375 27.24414062 C-227.69940082 20.51488247 -227.69940082 20.51488247 -221.90625 20.2890625 C-217.96316352 20.32320178 -216.9965724 20.4556957 -213.71875 22.9140625 C-210.09208968 27.90072044 -209.43566606 31.3440767 -209.5234375 37.4921875 C-209.5262674 38.24119324 -209.52909729 38.99019897 -209.53201294 39.76190186 C-209.5431774 42.14612026 -209.56827469 44.52995829 -209.59375 46.9140625 C-209.60378465 48.53384873 -209.61290965 50.15364086 -209.62109375 51.7734375 C-209.64310445 55.73712496 -209.67760825 59.70052931 -209.71875 63.6640625 C-191.11611734 63.58004586 -172.51357337 63.48486974 -153.91106606 63.37653542 C-145.27292259 63.32648802 -136.63478824 63.28004441 -127.99658203 63.2421875 C-120.46446401 63.20916876 -112.93241841 63.16928346 -105.40038049 63.12127244 C-101.41501158 63.09610536 -97.4296901 63.0742956 -93.44426346 63.06071854 C-89.68663581 63.04780876 -85.92917166 63.02566005 -82.17163467 62.99667931 C-80.14824846 62.98340542 -78.1248064 62.97969935 -76.10137939 62.97636414 C-60.25966762 62.83204321 -46.77454372 59.39325343 -34.71875 48.6640625 C-34.09226562 48.14199219 -33.46578125 47.61992187 -32.8203125 47.08203125 C-22.05767309 37.42385484 -18.78455167 22.64981989 -17.44140625 8.86328125 C-15.2188545 -0.97601544 -8.65315088 -0.07216464 0 0 Z " fill="#02C3CB" transform="translate(322.71875,219.3359375)"/>
<path d="M0 0 C3.94398082 2.08361251 6.58727648 4.24687452 9 8 C7.02 8 5.04 8 3 8 C3 6.68 3 5.36 3 4 C-4.21059326 2.73939526 -4.21059326 2.73939526 -11 5 C-13.79177569 7.79177569 -13.31213484 9.63183572 -13.4140625 13.5390625 C-13.47207031 15.49199219 -13.47207031 15.49199219 -13.53125 17.484375 C-13.56270763 18.86457862 -13.59395491 20.24478704 -13.625 21.625 C-13.66317934 23.01304541 -13.70223105 24.40106711 -13.7421875 25.7890625 C-13.83672943 29.19257185 -13.92227897 32.59607165 -14 36 C-13.34 36.33 -12.68 36.66 -12 37 C-12.375 39.9375 -12.375 39.9375 -13 43 C-15.73275019 44.3663751 -17.90358432 44.1341316 -20.96391296 44.14476013 C-22.23549759 44.15165863 -23.50708221 44.15855713 -24.81719971 44.16566467 C-26.23449693 44.16837952 -27.6517943 44.17101666 -29.0690918 44.17358398 C-30.55554906 44.17988759 -32.04200442 44.18665317 -33.52845764 44.19384766 C-36.73472894 44.20853379 -39.94099287 44.22025214 -43.14728355 44.22979546 C-48.21954654 44.24523346 -53.29174686 44.26918403 -58.3639679 44.29469299 C-72.78939859 44.3659291 -87.2148656 44.42562021 -101.64038086 44.47680664 C-109.60353356 44.50513799 -117.56662432 44.54053721 -125.52971202 44.58346039 C-130.56892072 44.6101961 -135.60805932 44.62812424 -140.64732492 44.63949764 C-143.78886602 44.64864534 -146.93032233 44.66601793 -150.07181358 44.68567657 C-151.52500063 44.69312927 -152.97820947 44.69723176 -154.43141556 44.69767189 C-156.42135913 44.6987609 -158.4112818 44.71321492 -160.40116882 44.72825623 C-162.06894394 44.73460413 -162.06894394 44.73460413 -163.77041149 44.74108028 C-167.38147028 45.0305829 -170.53245375 45.97870296 -174 47 C-175.32 47 -176.64 47 -178 47 C-178 47.66 -178 48.32 -178 49 C-186.415 49.495 -186.415 49.495 -195 50 C-191.41095967 47.60730645 -187.89003589 46.86812345 -183.75 45.9375 C-183.01136719 45.76412109 -182.27273437 45.59074219 -181.51171875 45.41210938 C-174.81046613 43.86975758 -168.28571987 42.87403993 -161.38771057 42.87974548 C-160.09913651 42.87837082 -158.81056244 42.87699615 -157.48294067 42.87557983 C-156.07269263 42.87911807 -154.66244483 42.88275286 -153.25219727 42.88647461 C-151.75364687 42.88675696 -150.25509634 42.88659782 -148.75654602 42.8860321 C-144.70335858 42.88574599 -140.65020093 42.89161265 -136.59702039 42.89860606 C-132.35561097 42.90487058 -128.11420081 42.90544585 -123.87278748 42.90663147 C-115.84775584 42.90973566 -107.82273789 42.91793674 -99.79771227 42.92798096 C-90.65866887 42.93917044 -81.5196248 42.94465969 -72.38057625 42.94967639 C-53.58704309 42.96012012 -34.79352265 42.97770188 -16 43 C-16.02356567 41.50218994 -16.02356567 41.50218994 -16.04760742 39.97412109 C-16.10212619 36.25057113 -16.13642934 32.5270561 -16.16479492 28.80322266 C-16.17983176 27.19508928 -16.20026672 25.58699656 -16.22631836 23.97900391 C-16.26292822 21.66037936 -16.27977722 19.34229951 -16.29296875 17.0234375 C-16.30845261 16.31069672 -16.32393646 15.59795593 -16.33988953 14.86361694 C-16.34145702 10.15786841 -15.47330845 6.99743955 -13 3 C-9.11440332 -0.33051144 -4.95932652 -0.88489944 0 0 Z " fill="#3FB3B6" transform="translate(403,108)"/>
<path d="M0 0 C1.25216812 -0.00274933 2.50433624 -0.00549866 3.79444885 -0.0083313 C5.17418004 -0.00125396 6.55391026 0.00601564 7.93363953 0.01345825 C9.39248649 0.01402265 10.85133403 0.01370525 12.31018066 0.01257324 C16.26435384 0.01199983 20.21840548 0.02375224 24.17255044 0.03772116 C28.30719654 0.05023045 32.44184547 0.05139917 36.57650757 0.05377197 C44.40329667 0.05998615 52.23002986 0.07639614 60.05679435 0.09647095 C68.96846202 0.11883187 77.88013237 0.12982387 86.79182112 0.13986182 C105.1212708 0.16076242 123.45066844 0.19593721 141.78007507 0.24050903 C141.78007507 0.57050903 141.78007507 0.90050903 141.78007507 1.24050903 C141.0602284 1.24381918 140.34038172 1.24712933 139.5987215 1.25053978 C122.03578877 1.33196776 104.4729446 1.42412401 86.9101305 1.52803612 C78.41668284 1.57803312 69.92324421 1.62447686 61.42973328 1.66238403 C54.02173938 1.69545567 46.61381834 1.73536914 39.20590514 1.78329909 C35.28806933 1.80841424 31.37028091 1.8302386 27.45238686 1.843853 C23.7546662 1.85681085 20.05710935 1.87900845 16.3594799 1.90789223 C14.37603311 1.92109573 12.39253028 1.92486276 10.40904236 1.9282074 C2.36975795 2.00221404 -5.31110019 2.79576287 -13.21992493 4.24050903 C-9.34665977 0.36724388 -5.30837906 -0.00900488 0 0 Z " fill="#16BCC4" transform="translate(246.2199249267578,214.75949096679688)"/>
<path d="M0 0 C3.94398082 2.08361251 6.58727648 4.24687452 9 8 C7.02 8 5.04 8 3 8 C3 6.68 3 5.36 3 4 C-4.21059326 2.73939526 -4.21059326 2.73939526 -11 5 C-13.79177569 7.79177569 -13.31213484 9.63183572 -13.4140625 13.5390625 C-13.45273437 14.84101562 -13.49140625 16.14296875 -13.53125 17.484375 C-13.56270763 18.86457862 -13.59395491 20.24478704 -13.625 21.625 C-13.66317934 23.01304541 -13.70223105 24.40106711 -13.7421875 25.7890625 C-13.83672943 29.19257185 -13.92227897 32.59607165 -14 36 C-13.34 36.33 -12.68 36.66 -12 37 C-12.33 38.98 -12.66 40.96 -13 43 C-14.98 43.495 -14.98 43.495 -17 44 C-16.9309001 39.12483008 -16.84282699 34.25049968 -16.73754883 29.37597656 C-16.70439982 27.71949616 -16.67633691 26.06290554 -16.65356445 24.40625 C-16.61983268 22.01775366 -16.56751041 19.63025829 -16.51171875 17.2421875 C-16.50532883 16.50757294 -16.4989389 15.77295837 -16.49235535 15.01608276 C-16.35900204 10.2983407 -15.4775567 7.01731314 -13 3 C-9.11440332 -0.33051144 -4.95932652 -0.88489944 0 0 Z " fill="#2BBABF" transform="translate(403,108)"/>
<path d="M0 0 C0.66 0 1.32 0 2 0 C1.81824219 0.83917969 1.81824219 0.83917969 1.6328125 1.6953125 C0.30109033 8.06709089 -0.63541444 14.43878413 -1.4375 20.8984375 C-1.94554147 23.69972172 -2.46788977 25.62297605 -4 28 C-6.61521785 29.30760893 -8.53113401 29.11997548 -11.45947266 29.11352539 C-12.60050446 29.11344986 -13.74153625 29.11337433 -14.91714478 29.11329651 C-16.15362762 29.10813522 -17.39011047 29.10297394 -18.6640625 29.09765625 C-19.92640717 29.0962413 -21.18875183 29.09482635 -22.48934937 29.09336853 C-25.84638299 29.08871078 -29.203349 29.07972408 -32.56036377 29.06866455 C-35.98554906 29.0584377 -39.41074134 29.05386818 -42.8359375 29.04882812 C-49.55731043 29.03778238 -56.27865131 29.02103194 -63 29 C-63 28.67 -63 28.34 -63 28 C-34.29 27.505 -34.29 27.505 -5 27 C-5 25.68 -5 24.36 -5 23 C-4.34 23 -3.68 23 -3 23 C-3 16.4 -3 9.8 -3 3 C-2.34 3 -1.68 3 -1 3 C-0.67 2.01 -0.34 1.02 0 0 Z " fill="#2CB9BC" transform="translate(196,251)"/>
<path d="M0 0 C0.91007812 0.00902344 1.82015625 0.01804688 2.7578125 0.02734375 C3.80582031 0.04474609 3.80582031 0.04474609 4.875 0.0625 C5.205 0.7225 5.535 1.3825 5.875 2.0625 C4.823125 2.000625 3.77125 1.93875 2.6875 1.875 C-5.85537405 2.29514135 -10.8666137 9.70506462 -16.41796875 15.52148438 C-17.10761719 16.22982422 -17.79726562 16.93816406 -18.5078125 17.66796875 C-19.13059082 18.31918701 -19.75336914 18.97040527 -20.39501953 19.64135742 C-22.125 21.0625 -22.125 21.0625 -25.125 21.0625 C-23.70661241 17.83665322 -21.99324816 15.68444828 -19.5 13.20703125 C-18.79359375 12.50255859 -18.0871875 11.79808594 -17.359375 11.07226562 C-16.62203125 10.34716797 -15.8846875 9.62207031 -15.125 8.875 C-14.38765625 8.13830078 -13.6503125 7.40160156 -12.890625 6.64257812 C-6.11401472 -0.0783848 -6.11401472 -0.0783848 0 0 Z " fill="#18BDC5" transform="translate(101.125,239.9375)"/>
<path d="M0 0 C5.80891746 4.81867247 11.13065552 10.01256408 16.4375 15.375 C17.26443359 16.20644531 18.09136719 17.03789062 18.94335938 17.89453125 C20.96455531 19.9274104 22.98336335 21.96259963 25 24 C24.67 24.66 24.34 25.32 24 26 C23.46890625 25.4225 22.9378125 24.845 22.390625 24.25 C21.68421875 23.5075 20.9778125 22.765 20.25 22 C19.20585937 20.88625 19.20585937 20.88625 18.140625 19.75 C15.94468043 17.57804666 15.94468043 17.57804666 12 18 C12 16.68 12 15.36 12 14 C11.01 14 10.02 14 9 14 C9 13.34 9 12.68 9 12 C8.01 11.67 7.02 11.34 6 11 C5.87625 10.4225 5.7525 9.845 5.625 9.25 C4.71007407 5.95626664 2.40745755 4.34572787 0 2 C0 1.34 0 0.68 0 0 Z " fill="#23B6BC" transform="translate(448,152)"/>
<path d="M0 0 C0.33 0.66 0.66 1.32 1 2 C0.360625 2.5775 -0.27875 3.155 -0.9375 3.75 C-3.12665489 5.73831166 -3.12665489 5.73831166 -3.3515625 7.91015625 C-4.27245486 10.87809248 -5.96612088 11.86461076 -8.4375 13.6875 C-9.64212891 14.59048828 -9.64212891 14.59048828 -10.87109375 15.51171875 C-13 17 -13 17 -15 18 C-15.33 18.99 -15.66 19.98 -16 21 C-17.65 21.33 -19.3 21.66 -21 22 C-19.38405168 19.95880212 -17.7143618 17.95927063 -16 16 C-15.34 16 -14.68 16 -14 16 C-13.79632813 15.46890625 -13.59265625 14.9378125 -13.3828125 14.390625 C-11.40494391 10.97125896 -8.69673101 8.48662079 -5.875 5.75 C-5.31167969 5.19570313 -4.74835938 4.64140625 -4.16796875 4.0703125 C-2.78313972 2.70895515 -1.39216796 1.35385141 0 0 Z " fill="#19BBC1" transform="translate(74,261)"/>
<path d="M0 0 C0.66 0.33 1.32 0.66 2 1 C1.34 2.65 0.68 4.3 0 6 C-0.66 6 -1.32 6 -2 6 C-2 6.66 -2 7.32 -2 8 C-3.093125 8.103125 -4.18625 8.20625 -5.3125 8.3125 C-9.14506729 9.02704644 -9.56221639 9.3405997 -12 12 C-14.6875 12.6875 -14.6875 12.6875 -17 13 C-12.85468395 8.45352433 -8.16831039 5.300363 -3 2 C-2.01 1.34 -1.02 0.68 0 0 Z " fill="#08C3CE" transform="translate(190,165)"/>
<path d="M0 0 C0 3.72820818 -0.84132013 4.97784819 -3 8 C-4.41234648 9.25185257 -5.83047005 10.50051146 -7.31640625 11.6640625 C-9.77505303 13.61500728 -12.06896843 15.74800108 -14.38671875 17.86328125 C-16 19 -16 19 -19 19 C-12.73 12.73 -6.46 6.46 0 0 Z " fill="#21B7BC" transform="translate(52,283)"/>
<path d="M0 0 C0 0.99 0 1.98 0 3 C-3.18899643 5.46422451 -5.99105993 7.39258484 -10 8 C-11.7325 8.2784375 -11.7325 8.2784375 -13.5 8.5625 C-17 9 -17 9 -21 9 C-21 8.34 -21 7.68 -21 7 C-20.23816406 6.82984375 -19.47632813 6.6596875 -18.69140625 6.484375 C-12.08735803 4.93436119 -6.07626488 3.02278834 0 0 Z " fill="#1FBCC5" transform="translate(279,275)"/>
<path d="M0 0 C0.61875 0.804375 1.2375 1.60875 1.875 2.4375 C3.74164041 5.03874519 3.74164041 5.03874519 6 6 C6.28875 6.763125 6.5775 7.52625 6.875 8.3125 C8.12101376 11.28908843 9.62230316 12.86007284 12 15 C11.67 15.66 11.34 16.32 11 17 C6.05 12.05 1.1 7.1 -4 2 C-2.68 1.34 -1.36 0.68 0 0 Z " fill="#28BFC3" transform="translate(51,342)"/>
<path d="M0 0 C0.33 0 0.66 0 1 0 C0.52432875 7.25398658 -1.29466594 13.26812223 -4 20 C-4.9827968 17.05160959 -5 15.05869028 -5 12 C-5.33 11.34 -5.66 10.68 -6 10 C-5.34 10 -4.68 10 -4 10 C-4.33 8.68 -4.66 7.36 -5 6 C-3.68 5.67 -2.36 5.34 -1 5 C-0.67 3.35 -0.34 1.7 0 0 Z " fill="#20BEC3" transform="translate(368,253)"/>
<path d="M0 0 C5.75 0.875 5.75 0.875 8 2 C8.33 1.34 8.66 0.68 9 0 C9.66 0.66 10.32 1.32 11 2 C9.37829621 3.00533667 7.75252763 4.00411907 6.125 5 C4.76761719 5.8353125 4.76761719 5.8353125 3.3828125 6.6875 C1 8 1 8 -1 8 C-0.67 5.36 -0.34 2.72 0 0 Z " fill="#1ABDC5" transform="translate(305,329)"/>
<path d="M0 0 C-0.33 0.66 -0.66 1.32 -1 2 C-2.32 2 -3.64 2 -5 2 C-5 2.66 -5 3.32 -5 4 C-13.415 4.495 -13.415 4.495 -22 5 C-15.71336924 0.80891282 -7.47932645 -0.50995408 0 0 Z " fill="#26B8C5" transform="translate(230,153)"/>
<path d="M0 0 C-0.76183594 0.27972656 -1.52367187 0.55945313 -2.30859375 0.84765625 C-9.50554468 3.64197802 -15.19396292 6.9123867 -21 12 C-21.33 11.01 -21.66 10.02 -22 9 C-21.34 9 -20.68 9 -20 9 C-19.67 7.68 -19.34 6.36 -19 5 C-17.35 5 -15.7 5 -14 5 C-14 4.34 -14 3.68 -14 3 C-4.13199301 -1.28234266 -4.13199301 -1.28234266 0 0 Z " fill="#36B7C0" transform="translate(233,220)"/>
<path d="M0 0 C3 3.75 3 3.75 3 6 C3.99 6 4.98 6 6 6 C7.25664978 8.90600261 8 10.79604584 8 14 C4.04 10.04 0.08 6.08 -4 2 C-2.68 1.34 -1.36 0.68 0 0 Z " fill="#26BFC3" transform="translate(83,374)"/>
<path d="M0 0 C0.33 0.66 0.66 1.32 1 2 C-1.47041566 7.56765319 -5.18209648 11.41458342 -10 15 C-10 10.84469116 -8.2148551 9.51148232 -5.5625 6.375 C-4.73878906 5.39273438 -3.91507813 4.41046875 -3.06640625 3.3984375 C-1 1 -1 1 0 0 Z " fill="#21BCC1" transform="translate(160,189)"/>
<path d="M0 0 C0.66 0 1.32 0 2 0 C0.38753587 3.53566354 -1.71959647 6.54775323 -4 9.6875 C-4.70125 10.66074219 -5.4025 11.63398438 -6.125 12.63671875 C-8 15 -8 15 -10 16 C-9.690625 15.236875 -9.38125 14.47375 -9.0625 13.6875 C-8.32106407 11.81210323 -7.63771783 9.91315348 -7 8 C-6.01 8 -5.02 8 -4 8 C-4 6.35 -4 4.7 -4 3 C-2.68 2.67 -1.36 2.34 0 2 C0 1.34 0 0.68 0 0 Z " fill="#28BBBE" transform="translate(351,293)"/>
<path d="M0 0 C1.65 0 3.3 0 5 0 C4.62488281 0.46148437 4.24976563 0.92296875 3.86328125 1.3984375 C-0.2251032 6.60932548 -3.22046785 11.99817837 -6 18 C-6.85709523 14.92605694 -7.15444061 13.04352525 -6 10 C-5.34 9.67 -4.68 9.34 -4 9 C-3.7834375 8.0409375 -3.7834375 8.0409375 -3.5625 7.0625 C-3 5 -3 5 0 3 C0 2.01 0 1.02 0 0 Z " fill="#2BB8BC" transform="translate(205,233)"/>
<path d="M0 0 C7.48291572 6.15034169 7.48291572 6.15034169 10 10 C6 10 6 10 4.25 8.625 C3 7 3 7 3 5 C1.68 4.67 0.36 4.34 -1 4 C-0.67 2.68 -0.34 1.36 0 0 Z " fill="#20B8BB" transform="translate(423,127)"/>
<path d="M0 0 C1.32 0.33 2.64 0.66 4 1 C0.7 4.3 -2.6 7.6 -6 11 C-6.33 10.34 -6.66 9.68 -7 9 C-6.67 8.01 -6.34 7.02 -6 6 C-5.34 5.67 -4.68 5.34 -4 5 C-4 4.34 -4 3.68 -4 3 C-2.68 3 -1.36 3 0 3 C0 2.01 0 1.02 0 0 Z " fill="#23BBBE" transform="translate(413,247)"/>
<path d="M0 0 C0 3 0 3 -1 4.9375 C-2.290849 7.21785272 -2.290849 7.21785272 -2 11 C-2.99 11 -3.98 11 -5 11 C-5.99 9.68 -6.98 8.36 -8 7 C-5.36 4.69 -2.72 2.38 0 0 Z " fill="#19BEC4" transform="translate(289,267)"/>
<path d="M0 0 C1.98 0 3.96 0 6 0 C5.01 1.485 5.01 1.485 4 3 C3.34 3 2.68 3 2 3 C1.773125 3.5775 1.54625 4.155 1.3125 4.75 C-0.33038023 7.5663661 -2.39533227 9.08077114 -5 11 C-5 9.68 -5 8.36 -5 7 C-3.33333333 6 -1.66666667 5 0 4 C0 2.68 0 1.36 0 0 Z " fill="#24B9BE" transform="translate(422,236)"/>
<path d="M0 0 C1.65 0 3.3 0 5 0 C4.07038578 1.15224028 3.1309875 2.29659176 2.1875 3.4375 C1.40439453 4.39462891 1.40439453 4.39462891 0.60546875 5.37109375 C-1 7 -1 7 -4 8 C-4.33 8.66 -4.66 9.32 -5 10 C-5 8.35 -5 6.7 -5 5 C-3.68 4.67 -2.36 4.34 -1 4 C-0.67 2.68 -0.34 1.36 0 0 Z " fill="#22BABE" transform="translate(444,215)"/>
<path d="M0 0 C0.66 0.33 1.32 0.66 2 1 C-0.75 5.875 -0.75 5.875 -3 7 C-3.4683265 9.58605332 -3.4683265 9.58605332 -3.625 12.5625 C-3.69976562 13.57441406 -3.77453125 14.58632812 -3.8515625 15.62890625 C-3.90054687 16.41136719 -3.94953125 17.19382813 -4 18 C-4.33 18 -4.66 18 -5 18 C-5 13.38 -5 8.76 -5 4 C-4.01 4 -3.02 4 -2 4 C-1.34 2.68 -0.68 1.36 0 0 Z " fill="#13BEC3" transform="translate(311,221)"/>
<path d="M0 0 C0.33 1.32 0.66 2.64 1 4 C0.34 4 -0.32 4 -1 4 C-1.33 6.31 -1.66 8.62 -2 11 C-5 11 -5 11 -8 10 C-7.59007812 9.52949219 -7.18015625 9.05898438 -6.7578125 8.57421875 C-6.21898437 7.95160156 -5.68015625 7.32898438 -5.125 6.6875 C-4.59132813 6.07261719 -4.05765625 5.45773437 -3.5078125 4.82421875 C-1.8359553 2.86501788 -1.8359553 2.86501788 0 0 Z " fill="#27B9C3" transform="translate(298,256)"/>
<path d="M0 0 C0.66 0.33 1.32 0.66 2 1 C1.071875 2.1446875 1.071875 2.1446875 0.125 3.3125 C-2.05597052 5.99625809 -2.05597052 5.99625809 -4 9 C-7.125 10.1875 -7.125 10.1875 -10 11 C-6.79239749 7.19364503 -3.59253891 3.45436433 0 0 Z " fill="#27BAC0" transform="translate(171,178)"/>
<path d="M0 0 C1.65 0 3.3 0 5 0 C5.2475 0.7425 5.495 1.485 5.75 2.25 C7.09147301 5.20124062 8.60905526 6.84814974 11 9 C10.67 9.66 10.34 10.32 10 11 C8.33035479 9.35718838 6.6643536 7.71067239 5 6.0625 C4.071875 5.14597656 3.14375 4.22945313 2.1875 3.28515625 C0 1 0 1 0 0 Z " fill="#2FBDC1" transform="translate(68,364)"/>
<path d="M0 0 C1.98 0 3.96 0 6 0 C9 6.625 9 6.625 9 10 C7.49702124 8.52386015 5.99768715 7.04400843 4.5 5.5625 C3.6646875 4.73878906 2.829375 3.91507812 1.96875 3.06640625 C0 1 0 1 0 0 Z " fill="#2DBEC5" transform="translate(30,326)"/>
<path d="M0 0 C0.91007812 0.00902344 1.82015625 0.01804688 2.7578125 0.02734375 C3.45648438 0.03894531 4.15515625 0.05054688 4.875 0.0625 C5.205 0.7225 5.535 1.3825 5.875 2.0625 C4.885 2.000625 3.895 1.93875 2.875 1.875 C-1.59388211 1.84758355 -5.03804608 3.3416773 -9.125 5.0625 C-6.91386358 0.16641221 -5.24075958 -0.06718923 0 0 Z " fill="#2AB5C0" transform="translate(101.125,239.9375)"/>
<path d="M0 0 C4 0 4 0 5.625 1.375 C6.07875 1.91125 6.5325 2.4475 7 3 C7.66 3.66 8.32 4.32 9 5 C6.69 4.67 4.38 4.34 2 4 C2 3.34 2 2.68 2 2 C1.01 2.33 0.02 2.66 -1 3 C-0.67 2.01 -0.34 1.02 0 0 Z " fill="#13BEC0" transform="translate(268,342)"/>
<path d="M0 0 C0.33 0.66 0.66 1.32 1 2 C-2 5 -5 8 -8 11 C-8.66 10.67 -9.32 10.34 -10 10 C-6.7 6.7 -3.4 3.4 0 0 Z " fill="#27B2B9" transform="translate(74,261)"/>
<path d="M0 0 C-3.64116773 3.33773709 -7.28607242 3.97864902 -12 5 C-8.90088062 0.35132094 -5.42435126 -0.30996293 0 0 Z " fill="#2FBCC5" transform="translate(304,337)"/>
<path d="M0 0 C0.66 0 1.32 0 2 0 C1.67 1.98 1.34 3.96 1 6 C0.34 6 -0.32 6 -1 6 C-1.33 6.99 -1.66 7.98 -2 9 C-2.33 7.02 -2.66 5.04 -3 3 C-2.34 3 -1.68 3 -1 3 C-0.67 2.01 -0.34 1.02 0 0 Z " fill="#22BFC2" transform="translate(196,251)"/>
<path d="M0 0 C1.65 0 3.3 0 5 0 C2.42215154 2.64752004 0.08351902 4.94432065 -3 7 C-3 6.01 -3 5.02 -3 4 C-2.34 4 -1.68 4 -1 4 C-0.67 2.68 -0.34 1.36 0 0 Z " fill="#24BEC3" transform="translate(214,225)"/>
<path d="M0 0 C0.66 0.33 1.32 0.66 2 1 C1.4375 2.875 1.4375 2.875 0 5 C-3.625 6.25 -3.625 6.25 -7 7 C-4.66666667 4.66666667 -2.33333333 2.33333333 0 0 Z " fill="#2DB5BD" transform="translate(180,171)"/>
<path d="M0 0 C0.66 0.33 1.32 0.66 2 1 C1.67 1.99 1.34 2.98 1 4 C-0.65 4 -2.3 4 -4 4 C-4 4.66 -4 5.32 -4 6 C-5.32 5.67 -6.64 5.34 -8 5 C-6.71475739 4.13619741 -5.42157581 3.28419631 -4.125 2.4375 C-3.04605469 1.72400391 -3.04605469 1.72400391 -1.9453125 0.99609375 C-1.30335938 0.66738281 -0.66140625 0.33867187 0 0 Z " fill="#2FB6C0" transform="translate(190,165)"/>
<path d="M0 0 C0 0.99 0 1.98 0 3 C-3.4352048 5.29013653 -4.985331 5.17842973 -9 5 C-6.08596738 3.05731159 -3.14191424 1.53604696 0 0 Z " fill="#29B9BF" transform="translate(279,275)"/>
<path d="M0 0 C0.99 0.66 1.98 1.32 3 2 C0.03 4.475 0.03 4.475 -3 7 C-3 5.35 -3 3.7 -3 2 C-2.01 2 -1.02 2 0 2 C0 1.34 0 0.68 0 0 Z " fill="#27B9BC" transform="translate(458,202)"/>
<path d="M0 0 C1.32 0.66 2.64 1.32 4 2 C3.67 3.32 3.34 4.64 3 6 C1.68 5.67 0.36 5.34 -1 5 C-0.67 3.35 -0.34 1.7 0 0 Z " fill="#17BEC4" transform="translate(138,222)"/>
</svg>
